<svg xmlns="http://www.w3.org/2000/svg" width="256" height="69" viewBox="0 0 256 69" fill="none">
  <path d="M88.6523 14.9043V36.0273V41.9682H95.6335V36.0273V14.9043V8.96338H88.6523V14.9043Z" fill="white"></path>
  <path d="M125.5 31.2266L109.556 10.5665C108.99 9.87547 108.416 9.3642 107.835 9.03418C107.252 8.70407 106.647 8.53906 106.019 8.53906C104.918 8.53906 104.014 8.90082 103.306 9.62357C102.599 10.347 102.245 11.3998 102.245 12.7825V41.9683H109.273V20.6128L124.368 40.1765L124.415 40.2709C125.012 40.9627 125.665 41.4894 126.372 41.8504C127.08 42.2114 127.811 42.3926 128.566 42.3926C129.729 42.3926 130.68 42.0229 131.42 41.2846C132.158 40.5464 132.528 39.5165 132.528 38.1964V8.96344H125.5L125.5 31.2266Z" fill="white"></path>
  <path d="M161.743 8.96338H136.507V15.2343H145.658V41.9682H152.639V15.2343H161.743V8.96338Z" fill="white"></path>
  <path d="M180.336 10.3307C179.786 9.63972 179.164 9.16821 178.473 8.9163C177.781 8.66506 176.947 8.53906 175.973 8.53906C174.966 8.53906 174.117 8.66506 173.426 8.9163C172.734 9.16821 172.105 9.63972 171.539 10.3307C170.973 11.0225 170.47 12.0127 170.03 13.3012L159.605 41.9683H166.964L169.346 34.8487H182.53L184.888 41.9683H192.247L181.869 13.3012C181.398 12.0127 180.886 11.0225 180.336 10.3307ZM171.334 28.9078L175.973 15.0457L180.563 28.9078H171.334Z" fill="white"></path>
  <path d="M220.118 11.9573C217.822 9.96165 214.677 8.96338 210.684 8.96338H195.59V41.9682H202.618V32.2082H210.684C214.677 32.2082 217.822 31.2107 220.118 29.2142C222.413 27.2185 223.562 24.3504 223.562 20.6094C223.562 16.8373 222.413 13.9539 220.118 11.9573ZM214.481 24.8764C213.239 25.7723 211.549 26.2202 209.411 26.2202H202.618V14.9514H209.411C211.549 14.9514 213.239 15.4074 214.481 16.3187C215.723 17.2308 216.345 18.6607 216.345 20.6094C216.345 22.5587 215.723 23.9806 214.481 24.8764Z" fill="white"></path>
  <path d="M252.557 11.9573C250.261 9.96165 247.116 8.96338 243.123 8.96338H228.028V41.9682H235.057L234.661 32.2082H243.123C247.116 32.2082 250.261 31.2107 252.557 29.2142C254.852 27.2185 256 24.3504 256 20.6094C256 16.8373 254.852 13.9539 252.557 11.9573ZM246.92 24.8764C245.677 25.7723 243.987 26.2202 241.849 26.2202H235.057V14.9514H241.849C243.987 14.9514 245.677 15.4074 246.92 16.3187C248.162 17.2308 248.783 18.6607 248.783 20.6094C248.783 22.5587 248.162 23.9806 246.92 24.8764Z" fill="white"></path>
  <path d="M38.0158 35.3644L40.6807 38.0282L48.4193 30.293C49.7676 28.9452 50.5101 27.1533 50.5101 25.2474C50.5101 23.3415 49.7676 21.5496 48.4193 20.2018L40.6668 12.4526L38.0047 15.1194L45.7543 22.8656C46.3908 23.5019 46.7413 24.3477 46.7413 25.2474C46.7413 26.1471 46.3908 26.9929 45.7543 27.6291L38.0158 35.3644Z" fill="#007EF4"></path>
  <path d="M25.2646 3.76438C26.1791 3.76438 27.0044 4.10601 27.651 4.75229L28.9189 6.01967L15.1004 20.1901C13.7469 21.543 13.0016 23.3419 13.0016 25.2551C13.0016 27.1683 13.7469 28.967 15.066 30.2852L28.9056 44.4843L27.651 45.7553C27.0043 46.4017 26.1791 46.7433 25.2646 46.7433C24.3502 46.7433 23.5249 46.4017 22.8783 45.7553L4.75457 27.6393C4.10782 26.9928 3.76592 26.168 3.76592 25.2539C3.76592 24.3398 4.10775 23.5149 4.75451 22.8684L22.8781 4.75242C23.5249 4.10601 24.3501 3.76438 25.2646 3.76438ZM25.2646 0C23.3573 0 21.564 0.742516 20.2153 2.09055L2.09156 20.2067C0.742772 21.5548 0 23.3473 0 25.2539C0 27.1604 0.742768 28.9528 2.09156 30.3011L20.2153 48.417C21.564 49.7652 23.3573 50.5077 25.2646 50.5077C27.1719 50.5077 28.9652 49.7652 30.3139 48.417L34.1796 44.5009L17.7634 27.6583C17.1212 27.0163 16.7675 26.1629 16.7675 25.2551C16.7675 24.3472 17.1212 23.4937 17.7634 22.8517L34.2109 5.98586L34.2202 5.97662H34.2015L30.3139 2.09055C28.9652 0.742516 27.172 0 25.2646 0Z" fill="#007EF4"></path>
  <path d="M50.7698 3.76438C50.9972 3.76438 51.2237 3.78654 51.448 3.83111C52.0939 3.95888 52.6868 4.27784 53.1626 4.75344L71.2807 22.864C71.9199 23.5027 72.261 24.3161 72.2684 25.2178V25.2815C72.2615 26.1845 71.9201 26.9994 71.2799 27.6393L53.1562 45.7553C52.5095 46.4017 51.6843 46.7433 50.7698 46.7433C49.8554 46.7433 49.0302 46.4017 48.4012 45.773L47.1289 44.4843L47.1683 44.4439L60.9341 30.3199C62.2875 28.967 63.0329 27.1683 63.0329 25.2551C63.0329 23.3416 62.2874 21.5427 60.9677 20.2241L47.1566 6.06158L47.1156 6.01979L48.3837 4.75229C49.0302 4.10601 49.8553 3.76438 50.7698 3.76438ZM50.7698 0C48.8625 0 47.0692 0.742389 45.7206 2.09068L41.8331 5.97636H41.8252L41.8142 5.97649L41.8236 5.98586L41.8289 5.9913L27.6123 20.202C26.2639 21.5496 25.5214 23.3416 25.5214 25.2475C25.5214 27.1535 26.2639 28.9453 27.6123 30.2931L43.9831 46.657L45.7206 48.417C47.0692 49.7652 48.8625 50.5077 50.7698 50.5077C52.6772 50.5077 54.4704 49.7652 55.8191 48.417L73.9429 30.3011C75.2917 28.9528 76.0344 27.1603 76.0344 25.2539C76.0344 25.2527 76.0343 25.2517 76.0343 25.2506C76.0343 25.2496 76.0344 25.2485 76.0344 25.2475C76.0344 23.3416 75.2919 21.5496 73.9436 20.202L55.8256 2.09169C54.8138 1.08023 53.5517 0.409883 52.1789 0.138401C51.7199 0.0469808 51.2485 0 50.7698 0ZM44.4709 41.8169L44.1285 41.4745L30.2772 27.6293C29.6407 26.993 29.2902 26.1473 29.2902 25.2475C29.2902 24.3477 29.6407 23.5019 30.2772 22.8657L44.4512 8.69775L44.4599 8.68914L58.271 22.8517C58.9132 23.4935 59.2669 24.3472 59.2669 25.2551C59.2669 26.1628 58.9132 27.0163 58.271 27.6583L44.4709 41.8169Z" fill="url(#paint0_linear_1275_27148)"></path>
  <path d="M99.4653 52.9077C98.5489 52.1145 97.4198 51.6347 96.079 51.4677C95.682 51.4124 95.2674 51.3806 94.835 51.3728C94.4024 51.3651 94.107 51.3608 93.9483 51.3608H88.5801V68.4941H93.9483C94.107 68.4941 94.4024 68.4902 94.835 68.4821C95.2674 68.4744 95.682 68.4426 96.079 68.3868C97.4198 68.2203 98.5489 67.7427 99.4653 66.9534C100.382 66.1641 101.074 65.1606 101.543 63.9429C102.011 62.7256 102.245 61.387 102.245 59.9273C102.245 58.476 102.011 57.1414 101.543 55.9237C101.074 54.7064 100.382 53.7009 99.4653 52.9077ZM99.2214 62.6876C98.9674 63.5525 98.5685 64.2802 98.0251 64.8712C97.4814 65.4619 96.7731 65.8407 95.9004 66.0072C95.6148 66.0548 95.2853 66.0866 94.9125 66.1025C94.5394 66.1184 94.218 66.1261 93.9483 66.1261H91.1273V53.7284H93.9483C94.2102 53.7284 94.5295 53.7346 94.9065 53.7463C95.2833 53.7583 95.6148 53.792 95.9004 53.8473C96.7574 54.0061 97.4576 54.3768 98.0012 54.9601C98.5447 55.543 98.9476 56.2649 99.2096 57.1255C99.4713 57.9861 99.6023 58.9203 99.6023 59.9273C99.6023 60.9029 99.4752 61.8231 99.2214 62.6876Z" fill="white"></path>
  <path d="M113.707 56.1978C112.787 55.5909 111.672 55.2876 110.363 55.2876C109.109 55.2876 108.01 55.5692 107.065 56.1323C106.121 56.6955 105.385 57.4925 104.857 58.5235C104.329 59.5549 104.066 60.7722 104.066 62.1762C104.066 63.5012 104.334 64.6651 104.869 65.6686C105.405 66.6721 106.155 67.4533 107.119 68.0125C108.083 68.5714 109.204 68.8511 110.481 68.8511C111.727 68.8511 112.858 68.5358 113.874 67.9053C114.89 67.2747 115.647 66.3843 116.147 65.234L113.707 64.4609C113.39 65.1194 112.947 65.6248 112.38 65.9776C111.813 66.3309 111.14 66.5075 110.363 66.5075C109.18 66.5075 108.275 66.1205 107.649 65.3471C107.13 64.708 106.83 63.847 106.74 62.7711H116.314C116.409 61.2324 116.229 59.9039 115.772 58.7854C115.316 57.6672 114.628 56.8043 113.707 56.1978ZM107.649 58.6665C108.275 57.8814 109.212 57.4887 110.458 57.4887C111.584 57.4887 112.424 57.8454 112.975 58.5596C113.39 59.0967 113.653 59.8545 113.765 60.8319H106.797C106.928 59.9406 107.21 59.2161 107.649 58.6665Z" fill="white"></path>
  <path d="M128.753 57.7385C128.356 56.8899 127.731 56.269 126.878 55.8763C126.025 55.4836 125.023 55.2876 123.872 55.2876C122.388 55.2876 121.2 55.6129 120.307 56.2632C119.415 56.9135 118.809 57.79 118.492 58.8926L120.813 59.6064C121.035 58.8849 121.428 58.3671 121.992 58.0537C122.555 57.7404 123.174 57.5839 123.848 57.5839C124.92 57.5839 125.676 57.8276 126.116 58.3156C126.5 58.741 126.711 59.3648 126.748 60.1861C126.26 60.2546 125.775 60.3232 125.283 60.3915C124.485 60.5027 123.725 60.622 123.003 60.7486C122.281 60.8756 121.635 61.0224 121.063 61.189C120.404 61.4032 119.849 61.6828 119.397 62.0275C118.944 62.3726 118.603 62.7913 118.373 63.2828C118.143 63.7746 118.028 64.3459 118.028 64.9962C118.028 65.6941 118.193 66.3347 118.522 66.9176C118.851 67.5009 119.337 67.9688 119.98 68.3216C120.623 68.6744 121.42 68.8511 122.373 68.8511C123.571 68.8511 124.581 68.6113 125.402 68.1314C126.017 67.7722 126.55 67.2718 127.003 66.6302V68.4944H129.205V60.5821C129.205 60.0426 129.181 59.5391 129.134 59.0712C129.086 58.6029 128.959 58.1591 128.753 57.7385ZM126.467 64.2704C126.372 64.691 126.17 65.0954 125.86 65.4842C125.551 65.8727 125.142 66.1918 124.634 66.442C124.126 66.6918 123.519 66.8165 122.813 66.8165C122.281 66.8165 121.845 66.7333 121.504 66.5667C121.162 66.4002 120.908 66.1763 120.742 65.8944C120.575 65.6132 120.492 65.3057 120.492 64.9726C120.492 64.6314 120.569 64.3417 120.724 64.1039C120.879 63.866 121.089 63.6635 121.355 63.4969C121.621 63.3304 121.924 63.1879 122.265 63.0686C122.67 62.9419 123.132 62.8327 123.652 62.7417C124.172 62.6503 124.753 62.557 125.396 62.4621C125.808 62.401 126.253 62.3344 126.723 62.2636C126.718 62.4741 126.711 62.7122 126.699 62.9853C126.679 63.4613 126.602 63.8897 126.467 64.2704Z" fill="white"></path>
  <path d="M134.787 51.0039H132.299V68.4943H134.787V51.0039Z" fill="white"></path>
  <path d="M142.239 54.1926C143.048 53.6453 144.06 53.3719 145.274 53.3719C146.631 53.3719 147.736 53.7127 148.589 54.3952C149.442 55.0772 150.035 56.0172 150.368 57.2147L152.892 56.5366C152.384 54.8471 151.481 53.5028 150.184 52.5032C148.886 51.5039 147.25 51.0039 145.274 51.0039C143.56 51.0039 142.1 51.3788 140.893 52.1283C139.687 52.8781 138.765 53.923 138.126 55.2635C137.487 56.604 137.168 58.159 137.168 59.9274C137.168 61.6967 137.487 63.2513 138.126 64.5918C138.765 65.9322 139.687 66.9772 140.893 67.7266C142.1 68.4764 143.56 68.851 145.274 68.851C147.25 68.851 148.886 68.3513 150.184 67.3521C151.481 66.3525 152.384 65.0081 152.892 63.3187L150.368 62.6405C150.035 63.8303 149.442 64.7684 148.589 65.4543C147.736 66.1402 146.631 66.4834 145.274 66.4834C144.06 66.4834 143.046 66.2099 142.233 65.6623C141.419 65.115 140.808 64.3497 140.399 63.3659C139.991 62.3826 139.79 61.2365 139.798 59.9274C139.798 58.6187 140.003 57.4727 140.411 56.4889C140.82 55.5056 141.429 54.7399 142.239 54.1926Z" fill="white"></path>
  <path d="M157.998 51.0039H155.51V68.4943H157.998V51.0039Z" fill="white"></path>
  <path d="M170.258 56.1559C169.314 55.5769 168.199 55.2876 166.913 55.2876C165.652 55.2876 164.549 55.5711 163.604 56.1381C162.66 56.7055 161.926 57.4987 161.402 58.5177C160.879 59.5371 160.617 60.7169 160.617 62.0573C160.617 63.39 160.873 64.5659 161.384 65.5853C161.896 66.6047 162.624 67.4037 163.569 67.9827C164.513 68.5617 165.628 68.8511 166.913 68.8511C168.191 68.8511 169.302 68.5637 170.246 67.9885C171.191 67.4138 171.923 66.6163 172.443 65.5969C172.962 64.5779 173.222 63.3982 173.222 62.0573C173.222 60.7327 172.964 59.5631 172.449 58.5476C171.933 57.5324 171.203 56.735 170.258 56.1559ZM169.669 65.2638C169.062 66.093 168.143 66.5075 166.913 66.5075C165.715 66.5075 164.807 66.1027 164.188 65.2936C163.569 64.4846 163.259 63.4059 163.259 62.0573C163.259 61.1851 163.39 60.4175 163.652 59.7552C163.914 59.0929 164.315 58.5735 164.854 58.1966C165.394 57.8198 166.08 57.6312 166.913 57.6312C168.128 57.6312 169.042 58.034 169.657 58.8388C170.272 59.644 170.58 60.7168 170.58 62.0573C170.58 63.366 170.276 64.435 169.669 65.2638Z" fill="white"></path>
  <path d="M184.399 62.3309C184.399 63.0923 184.314 63.7387 184.143 64.2701C183.972 64.8015 183.738 65.2299 183.441 65.5552C183.143 65.8805 182.796 66.1164 182.399 66.2632C182.002 66.41 181.582 66.4832 181.138 66.4832C180.455 66.4832 179.902 66.3445 179.477 66.0668C179.053 65.7891 178.723 65.4243 178.489 64.9723C178.255 64.5199 178.096 64.0304 178.013 63.5029C177.93 62.9754 177.888 62.4618 177.888 61.9618V55.644H175.365V62.7829C175.365 63.1795 175.4 63.6396 175.472 64.1632C175.543 64.6865 175.678 65.2221 175.876 65.7694C176.075 66.3166 176.362 66.8225 176.739 67.2865C177.116 67.7505 177.606 68.125 178.209 68.4108C178.812 68.6963 179.558 68.8392 180.447 68.8392C181.606 68.8392 182.594 68.5894 183.411 68.0893C183.915 67.7813 184.337 67.3895 184.697 66.9322V68.4941H186.911V55.644H184.399V62.3309Z" fill="white"></path>
  <path d="M198.659 51.3608V56.5334C198.519 56.4085 198.379 56.2834 198.224 56.1735C197.395 55.5829 196.373 55.2873 195.159 55.2873C193.953 55.2873 192.912 55.5829 192.035 56.1735C191.158 56.7645 190.481 57.5697 190.005 58.5887C189.529 59.6081 189.291 60.7642 189.291 62.0571C189.291 63.3422 189.527 64.4983 189.999 65.5254C190.471 66.5529 191.142 67.3636 192.011 67.9585C192.88 68.5534 193.913 68.8508 195.112 68.8508C196.342 68.8508 197.373 68.5514 198.207 67.9526C198.476 67.7588 198.717 67.5343 198.945 67.2959V68.4941H201.159V51.3608H198.659ZM198.587 64.4131C198.349 65.0951 197.972 65.6307 197.457 66.0192C196.941 66.4081 196.274 66.6021 195.457 66.6021C194.663 66.6021 194.007 66.3999 193.487 65.9956C192.967 65.5909 192.578 65.0455 192.321 64.3596C192.062 63.6733 191.934 62.906 191.934 62.0571C191.934 61.2166 192.062 60.4552 192.321 59.7727C192.578 59.0907 192.973 58.5473 193.505 58.1426C194.036 57.7382 194.715 57.536 195.54 57.536C196.318 57.536 196.959 57.7262 197.463 58.1069C197.966 58.4877 198.339 59.0194 198.581 59.7015C198.823 60.3835 198.945 61.169 198.945 62.0571C198.945 62.9456 198.826 63.731 198.587 64.4131Z" fill="white"></path>
  <defs>
    <linearGradient id="paint0_linear_1275_27148" x1="25.5214" y1="25.2539" x2="76.0344" y2="25.2539" gradientUnits="userSpaceOnUse">
      <stop stop-color="#0080FB"></stop>
      <stop offset="0.16114" stop-color="#009CEF"></stop>
      <stop offset="0.40958" stop-color="#00C1E0"></stop>
      <stop offset="0.64023" stop-color="#00DCD5"></stop>
      <stop offset="0.84417" stop-color="#00EDCE"></stop>
      <stop offset="1" stop-color="#00F3CC"></stop>
    </linearGradient>
  </defs>
</svg>